# xmcd CD database file
# Copyright (C) 1996 Ti Kan
#
# Track frame offsets:
#  150
#  22237
#  49710
#  75372
#  92627
#  117885
#  138755
#  161762
#  182757
#  202382
#
# Disc length: 3011 seconds
#
# Revision: 1
# Processed by: cddbd v1.4b41PL1 Copyright (c) Steve Scherf et al.
# Submitted via: CDWizzard Release:4.12
#
DISCID=830bc10a
DTITLE=Louisiana Red - The Rising Sun Collection
DYEAR=1900
DGENRE=
TTITLE0=Walk All Over Georgia
TTITLE1=Sharecropper's Son
TTITLE2=Smoke A Little Marijuana
TTITLE3=Too Poor To Die
TTITLE4=Pretty Woman
TTITLE5=Smokestack Lightnin'
TTITLE6=Red, Funk and Blue
TTITLE7=Tall White Horse
TTITLE8=Louisiana Blues
TTITLE9=You Don't Have To Go
EXTD=
EXTT0=
EXTT1=
EXTT2=
EXTT3=
EXTT4=
EXTT5=
EXTT6=
EXTT7=
EXTT8=
EXTT9=
PLAYORDER=
